<?xml version="1.0" encoding="UTF-8" standalone="no"?>
<svg
   width="2048"
   height="596"
   version="1.1"
   id="svg42"
   sodipodi:docname="ideal_with_text (1).svg"
   inkscape:version="1.2.1 (9c6d41e410, 2022-07-14)"
   xmlns:inkscape="http://www.inkscape.org/namespaces/inkscape"
   xmlns:sodipodi="http://sodipodi.sourceforge.net/DTD/sodipodi-0.dtd"
   xmlns="http://www.w3.org/2000/svg"
   xmlns:svg="http://www.w3.org/2000/svg">
  <defs
     id="defs46" />
  <sodipodi:namedview
     id="namedview44"
     pagecolor="#ffffff"
     bordercolor="#000000"
     borderopacity="0.25"
     inkscape:showpageshadow="2"
     inkscape:pageopacity="0.0"
     inkscape:pagecheckerboard="0"
     inkscape:deskcolor="#d1d1d1"
     showgrid="false"
     inkscape:zoom="0.47820439"
     inkscape:cx="1245.2834"
     inkscape:cy="987.02565"
     inkscape:window-width="2560"
     inkscape:window-height="1357"
     inkscape:window-x="0"
     inkscape:window-y="0"
     inkscape:window-maximized="1"
     inkscape:current-layer="svg42" />
  <g
     id="g40">
    <svg
       width="2048"
       height="596"
       version="1.0"
       id="svg32">
      <g
         fill="#01448c"
         transform="matrix(.1 0 0 -.1 0 596)"
         id="g30">
        <path
           d="M2525 5523C1045 4769 120 4287 120 4269c0-9 154-97 438-250 106-57 202-112 213-122 18-17 19-39 19-711v-692l-35-41c-42-50-55-81-55-136 1-95 68-177 162-198 71-15 115-4 171 42 91 75 101 192 24 292-14 18-26 42-27 53-1 10-2 292-1 627 1 501 3 607 14 607 8 0 76-34 152-75s142-75 147-75c4 0 10 12 14 28 14 67 89 274 133 367 80 170 122 222 236 294 39 24 82 52 96 61 43 30 185 99 298 145 268 110 707 186 976 170 234-14 508-65 704-130 131-45 357-153 472-227 80-52 150-112 190-165 42-53 131-253 179-401s54-161 69-148c14 12 472 269 846 474 66 36 174 97 240 135s132 76 148 84c15 8 27 18 27 23 0 4-66 42-147 85-157 81-2793 1396-2796 1394-1 0-227-116-502-256zm235-1049c-363-48-704-165-934-322-82-55-104-76-125-117-45-85-92-196-127-297-34-97-71-274-61-284 3-4 41 29 84 73 300 302 752 523 1168 573 126 15 382 15 500 1 185-24 419-93 595-177 210-101 398-232 560-390 42-41 80-74 87-74 20 0 21 38 3 117-38 160-147 423-204 490-66 78-317 214-541 293-321 113-694 155-1005 114zm50-540c-14-3-74-14-135-25-165-30-324-83-480-159-278-135-476-306-665-573l-34-47 26-28c125-134 178-199 178-218 0-12-9-46-19-76-10-29-27-82-36-118-31-120-24-115-153-116-122-2-138-8-168-66-14-28-19-143-8-209 12-70 25-77 154-84 162-8 179-12 184-38 10-58 29-148 42-202 31-129 39-110-85-199-61-43-116-85-122-92-8-10 4-36 50-111 34-54 72-111 85-128l24-30 58 22c33 12 109 42 171 67 61 25 118 46 125 46 15-1 208-182 208-195 0-5-20-50-44-100-49-100-70-160-80-221-7-39-6-42 32-66 66-44 222-119 233-112s88 111 169 228c51 75 52 75 176 50 120-24 121-24 128-146 14-220 17-240 42-265 22-22 30-23 161-23 97 1 143 4 155 14 19 14 38 167 38 303 0 69 1 73 28 86 15 8 66 24 115 37l87 22 26-28c14-16 59-76 100-134 122-171 99-163 253-84 109 57 131 72 131 90 0 41-61 208-102 277l-40 68 103 97c56 53 106 99 111 100 7 3 46-11 213-77 11-5 41-18 68-30 26-11 53-21 60-21 26 0 167 214 167 252 0 9-49 53-109 98-61 46-112 88-114 94-3 6 1 40 8 76s18 111 25 166l12 102 148 7c190 9 184 3 188 166 4 119 4 119-31 154s-35 35-155 35c-84 0-122 4-129 13-11 13-33 211-33 294 0 45 5 58 42 105 23 29 62 72 85 95 24 22 43 47 43 53 0 22-142 200-240 303-220 231-550 403-903 472-109 22-168 27-337 30-113 2-216 2-230-1zm330-768c348-63 617-304 707-637 13-48 17-101 17-214-1-138-3-156-29-230-85-245-228-415-430-515-246-122-510-127-752-15-426 197-616 723-409 1135 93 185 218 310 402 403 45 23 199 68 274 80 53 9 148 6 220-7zm9025 204c-226-34-420-123-573-265-195-181-289-395-317-725-8-95 23-305 61-410 103-287 302-493 587-608 123-50 220-65 402-65 139 1 173 4 260 27 163 42 333 136 473 262l43 39v730l-168 5c-128 4-709 4-755 1-5-1-8-48-8-106v-105l348-2 347-3 2-210 3-210-74-53c-143-102-282-150-456-158-101-5-127-3-213 20-319 82-533 322-586 656-71 439 168 842 559 945 151 40 373 28 505-27 74-32 183-104 246-165l56-54 91 57c51 32 92 62 92 68 0 18-141 150-219 204-77 54-211 111-321 137-79 18-303 27-385 15zm-6492-47c-3-10-17-45-31-78-13-33-75-186-137-340s-177-437-255-630c-78-192-155-384-172-425-16-41-55-136-85-210-73-175-115-291-109-298 3-2 61-6 130-8 90-3 126-1 134 9 9 11 127 304 159 395l15 42h507c278 0 511-4 516-8 6-4 20-34 32-67 11-33 30-82 41-110 11-27 37-93 57-145 21-52 42-101 48-108 8-10 43-12 144-10 73 2 133 4 133 5 0 4-107 271-373 928-58 143-139 346-181 450-42 105-81 199-86 210-14 32-120 295-140 349-9 26-24 52-31 57-8 5-81 9-162 9-132 0-148-2-154-17zm222-368c46-120 107-274 130-330 7-16 45-113 85-215 39-102 76-194 81-205 45-103 79-197 74-205-7-12-834-14-852-2-9 6 2 43 42 142 29 74 92 234 140 355s104 263 124 315c21 52 51 131 66 175 30 86 44 110 56 98 4-4 29-62 54-128zm11300 1c0-339-2-383-15-373-8 7-42 39-75 72-107 107-250 165-406 165-181-1-327-57-438-169-158-160-220-358-208-661 5-115 11-151 37-233 40-126 87-205 169-287 117-116 252-170 428-170s296 47 419 163c39 37 77 67 84 67 10 0 11-14 7-57-3-32-3-76 0-99l5-41 104 1c57 1 104 3 104 6v1995l-107 3-108 3v-385zm-282-355c111-39 254-145 278-207 5-14 9-170 9-349v-325l-36-40c-77-85-205-159-312-180-364-72-634 252-567 680 32 206 114 324 285 410 86 44 234 48 343 11zm-8148 558c-4-16-6-43-5-61s2-93 1-166c-1-157 6-150-148-153l-98-1v-89l-1-89h111c60 0 116-4 123-8 9-6 12-117 12-503 0-596 4-632 81-708 57-58 103-74 220-79 84-4 118-1 160 13 50 17 129 61 129 73 0 3-9 23-20 46-10 23-26 58-35 79l-15 39-30-26c-57-48-161-48-211 0-60 58-59 47-59 577 0 552-9 500 88 497 26-1 83-1 128-1l80 1v88l-1 87-125 2c-190 4-170-21-170 208v195l-82 1c-46 1-93 3-105 4-17 2-23-4-28-26zm1295-358c-199-55-336-157-433-322-131-222-137-557-16-805 61-124 192-254 315-310 134-62 350-83 501-48 150 34 285 124 383 254 188 250 210 625 54 905-36 64-115 156-169 198-73 55-200 115-280 132-98 20-273 18-355-4zm292-186c227-48 383-274 382-555-1-289-161-517-393-560-211-39-403 49-505 233-42 75-60 135-76 253-34 238 76 485 262 585 106 56 208 70 330 44zm3763 188c-100-21-197-75-286-160-42-40-79-73-83-73-3 0-6 47-6 105v105l-82 1c-46 1-96 3-111 5l-28 3 3-725 2-724 36-1c19-1 67-2 105-3l70-1 2 170c1 94 2 329 2 524l1 353 58 57c100 97 256 165 366 159 44-2 61 0 60 10-1 6-2 57-2 112-2 114 6 108-107 83zm771-4c-44-11-112-35-150-53-74-36-203-128-212-151-4-11 55-111 87-149 4-5 33 14 63 41 69 61 180 118 264 134 36 7 104 10 162 7 86-4 108-9 164-37 84-41 151-113 165-179 11-52 17-329 8-339-4-3-32 15-63 41-120 99-257 141-436 134-279-11-451-151-487-395-21-145 26-309 114-398 52-52 124-99 194-126 81-31 276-39 369-14 92 25 191 76 253 131 61 54 69 49 61-38-3-41-1-62 7-67 9-6 104-7 204-1 11 0 9 1049-3 1111-33 177-176 312-376 354-100 21-290 18-388-6zm259-713c84-19 161-51 216-92 76-56 79-64 79-225v-142l-43-41c-212-203-601-171-702 59-32 71-38 118-25 182 28 133 114 218 263 258 66 17 136 18 212 1zm3165 705c-213-69-349-188-440-384-41-89-80-256-80-342 0-84 35-255 70-338 60-145 175-269 316-344 219-115 540-112 762 7 96 52 172 107 172 125 0 15-88 145-97 145-3 0-28-20-54-45-88-82-245-137-394-137-216 0-380 94-468 270-37 74-73 203-63 227 5 13 80 15 596 15h590l-6 88c-19 276-98 455-262 595-117 99-264 147-449 147-90-1-122-5-193-29zm351-169c72-20 162-75 208-127 68-78 131-234 131-326 0-19-12-19-477-19-277 0-484 4-493 10-12 8-11 19 8 87 35 119 77 195 146 261 67 65 119 95 199 117 74 20 200 19 278-3zm1511 177c-39-10-85-25-104-35-55-27-150-99-198-148-24-25-48-46-53-46-4 0-7 45-6 100 1 56 0 102-2 104s-53 6-112 9l-108 5 3-718c2-395 6-722 10-726 8-7 174-13 196-6 9 3 12 115 12 516 0 579-7 531 86 608 106 87 230 138 337 138h68l-3 108c-3 107-3 107-29 108-15 1-59-7-97-17zm-12132-24c-4-5-10-247-13-538-4-290-10-534-14-542-19-32-132-118-198-150-97-46-161-59-265-53-109 7-182 37-228 96-69 87-67 60-70 655l-3 537h-97c-84 0-99-3-109-19-8-13-11-163-9-562 2-582 4-607 55-708 29-56 122-136 189-162 72-28 261-38 355-19 110 23 251 97 336 177 57 54 64 47 55-57l-7-90h118c103 0 116 2 111 16-3 9-6 332-6 719v704l-96 3c-56 2-99-1-104-7z"
           id="path28" />
      </g>
    </svg>
  </g>
</svg>
