<?xml version="1.0" encoding="UTF-8" standalone="no"?>
<svg
   width="1400"
   height="1400"
   version="1.1"
   id="svg30"
   sodipodi:docname="ideal_with_text.svg"
   inkscape:version="1.2.1 (9c6d41e410, 2022-07-14)"
   xmlns:inkscape="http://www.inkscape.org/namespaces/inkscape"
   xmlns:sodipodi="http://sodipodi.sourceforge.net/DTD/sodipodi-0.dtd"
   xmlns="http://www.w3.org/2000/svg"
   xmlns:svg="http://www.w3.org/2000/svg">
  <defs
     id="defs34" />
  <sodipodi:namedview
     id="namedview32"
     pagecolor="#ffffff"
     bordercolor="#000000"
     borderopacity="0.25"
     inkscape:showpageshadow="2"
     inkscape:pageopacity="0.0"
     inkscape:pagecheckerboard="true"
     inkscape:deskcolor="#d1d1d1"
     showgrid="false"
     inkscape:zoom="0.50146484"
     inkscape:cx="1053.9124"
     inkscape:cy="972.15191"
     inkscape:window-width="2560"
     inkscape:window-height="1357"
     inkscape:window-x="0"
     inkscape:window-y="0"
     inkscape:window-maximized="1"
     inkscape:current-layer="g28" />
  <g
     id="g28">
    <svg
       width="2048"
       height="2048"
       version="1.0"
       id="svg26">
      <g
         fill="#2f2e2f"
         transform="matrix(0.1,0,0,-0.1,0,2048)"
         id="g24">
        <path
           d="m 6936.2233,19613.204 c -16,-11 -77,-44 -135,-73 -212,-108 -1011,-517 -1200,-615 -107,-56 -220,-112 -250,-125 -30,-12 -109,-53 -175,-90 -66,-37 -291,-153 -500,-258 -209,-105 -438,-221 -510,-258 -71,-37 -211,-109 -310,-160 -99,-51 -241,-124 -315,-163 -74,-39 -268,-139 -430,-222 -162,-84 -414,-214 -560,-290 -146,-75 -375,-194 -510,-263 -250,-128 -630,-328 -845,-444 -207.00004,-112 -447.00007,-238 -700.00007,-368 -194,-100 -332,-177 -340,-190 -3,-4 1,-23 9,-42 11,-25 30,-42 78,-67 71,-37 196,-105 503,-273 261.00007,-143 527.00007,-288 710.00007,-388 174,-95 243,-139 252,-165 5,-11 6,-758 5,-1660 l -4,-1640 -73,-76 c -77,-81 -101,-128 -131,-257 -16,-67 -13,-94 17,-206 30,-112 94,-199 197,-269 75,-51 139,-69 266,-75 101,-4 113,-2 180,23 60,24 84,41 153,110 107,106 152,195 160,313 9,132 -29,230 -151,386 l -46,58 v 1484 c 0,815 4,1485 9,1488 8,5 182,-87 574,-303 93,-51 170,-91 171,-89 1,1 12,44 24,93 72,293 211,671 362,980 72,148 131,240 251,388 41,50 150,135 208,163 25,12 87,50 136,86 130,93 443,260 679,363 119,52 368,145 516,193 319,104 778,198 1165,239 241,25 924,25 1135,0 278,-33 749,-120 965,-178 153,-41 468,-147 605,-204 474,-194 1001.0007,-508 1182.0007,-704 130,-140 273,-406 421,-786 39,-99 154,-467 183,-585 10,-41 19,-77 21,-79 1,-2 17,9 35,24 18,14 60,43 93,62 73,44 696,395 855,482 143,79 592,328 930,516 238,132 307,171 435,240 28,15 102,58 165,95 146,85 409,235 478,273 29,16 50,32 48,36 -3,4 -26,17 -53,31 -26,13 -64,33 -84,46 -41,26 -1327,679 -1764,897 -165,82 -365,182 -445,223 -80,41 -280,141 -445,223 -668,330 -3318.0007,1655 -3713.0007,1856 -232,118 -430,215 -440,214 -9,0 -30,-9 -47,-20 z m -265,-3029 c -41,-4 -138,-13 -215,-20 -410,-34 -815,-120 -1250,-264 -271,-90 -652,-260 -847,-378 -294,-176 -433,-284 -478,-369 -166,-311 -376,-840 -420,-1059 -24,-122 -53,-341 -48,-372 3,-20 6,-18 36,22 41,56 321,322 473,450 237,198 434,335 713,494 419,240 763,373 1287,501 246,60 459,92 698,106 677,40 1204,-29 1836,-240 83,-27 177,-61 210,-74 33,-14 104,-43 158,-65 245,-102 712,-375 930,-544 56,-43 138,-107 182,-141 44,-34 178.0007,-158 297.0007,-275 l 217,-214 30,34 c 17,18 30,40 31,48 0,43 -44,245 -74,338 -19,59 -55,170 -80,247 -40,126 -111,309 -136,353 -14,25 -140,293 -140,298 0,14 -74.001,115 -112.0007,155 -214,220 -845,546 -1378,712 -181,57 -459,134 -525,146 -33,6 -96,18 -140,26 -117,23 -336,55 -445,65 -52,5 -133,14 -180,19 -94,12 -513,12 -630,1 z m -7,-827 c -7,-2 -19,-2 -25,0 -7,3 -2,5 12,5 14,0 19,-2 13,-5 z m -176,-9 c -3,-3 -12,-4 -19,-1 -8,3 -5,6 6,6 11,1 17,-2 13,-5 z m 1226,-41 c -7,-2 -19,-2 -25,0 -7,3 -2,5 12,5 14,0 19,-2 13,-5 z m -1098,-423 c -332,-21 -703,-97 -1100,-227 -539,-176 -1105,-522 -1527,-932 -170,-164 -279,-298 -572,-703 l -34,-47 180,-196 c 100,-108 204,-225 232,-261 28,-36 60,-76 70,-89 13,-17 16,-28 9,-37 -28,-37 -85,-220 -163,-524 -23,-89 -45,-166 -49,-173 -13,-20 -121,-31 -331,-32 -130,0 -217,-5 -238,-12 -42,-16 -87,-59 -115,-111 -21,-39 -22,-51 -21,-306 0,-304 6,-334 68,-384 38,-31 38,-31 289,-37 139,-4 275,-11 302,-17 28,-6 71,-14 97,-17 47,-6 47,-6 52,-73 17,-188 62,-399 137,-645 11,-37 18,-74 16,-81 -3,-7 -34,-29 -69,-49 -94,-53 -508,-372.0005 -508,-393.0005 0,-5 32,-59 71,-120 40,-60 85,-134 102,-164 35,-63 185,-299.0001 202,-318.0001 17,-19 136,26.0001 729,275.0001 70,30 132,53 136,51 4,-2 117,-110 250,-240 l 244,-236.0001 -25,-39 c -50,-75 -217,-440 -253,-550 -29,-92 -36,-128 -36,-194 0,-52 4,-85 13,-93 22,-23 277,-166 421,-237 83,-42 151,-69 170,-69 39,0 111,72 181,180 72,113 239,354 313,453 46,60 72,87 86,87 12,0 80,-15 151,-34 72,-18 183,-45 247,-60 64,-15 121,-33 127,-40 23,-28 60,-412 62,-641 0,-128 20,-244 45,-263 60,-46 89,-51 352,-56 146,-3 280,0 315,5 80,13 138,45 148,82 8,30 23,260 42,632 l 12,230 50,17 c 72,24 393,119 440,130 39,9 41,9 82,-36 23,-26 89,-113 147,-194 58,-81 153,-212 211,-292 58,-80 115,-162 127,-182 12,-21 26,-38 32,-38 22,0 464,228 556,287 85,55 95,64 94,89 -2,39 -46,200 -82,304 -54,154 -71,195 -106,250 -19,30 -59,105 -89,165 l -54,110 26,29 c 14,15 76,70 136,121 106,89.0001 203,185.0001 293,290.0001 40,46 45,48 65,35 49,-31 187,-94 306,-140 357.0007,-138 413.0007,-160 446.0007,-176.0001 36,-17 36,-17 84,33.0001 60,62 156,208 249,373 38,69 78,140 88,158 19,33 19,33 -7,55 -106,89.0005 -224,181.0005 -280,218.0005 -37,24 -108,78 -158,119 -107.0007,86 -100.001,58 -61,275 36,201 70,437 71,490 0,27 3,68 7,90 l 7,40 310,5 c 298,5 312,6 357,28 64,32 104,79 117,142 18,81 14,467 -4,521 -20,59 -66,114 -118,142 -40,21 -54,22 -335,25 -216,2 -294,6 -296,15 -9,33 -27,176 -35,287 -27,347 -33,469 -27,501 10,57 81,157 207,290 190,202 209,224 209,232 0,5 -13,22 -30,38 -16,16 -39,44 -51,62 -61,87 -226,304 -309,407 -237.0007,292 -618.0007,612 -940.0007,790 -52,29 -129,73 -170,98 -191,116 -612,284 -930,371 -113,31 -465,99 -576,111 -256,28 -620,36 -889,20 z m 410,-1800 c 168,-13 338,-35 414,-55 87,-23 286,-98 391,-147 171,-81 442,-277 561,-406 75,-80 215,-255 254,-317 88,-137 215,-424 249,-560 25,-98 64,-343 71,-440 11,-169 -38,-515 -99,-697 -121,-361 -347,-696 -631,-935.0005 -157,-132 -438,-288 -635,-352 -222,-72 -380,-95 -660,-95 -211,0 -314,11 -480,53 -238,59 -396,130 -625,276 -243,156 -451,372.0005 -607,632.0005 -132,220 -234,502 -266,738 -35,252 -35,264 -18,430 33,315 81,489 204,745 60,125 161,287 242,389 221,278 577,524 925,639 116,39 331,83 485,101 41,5 77,9 80,10 3,0 68,-4 145,-9 z M 17735.224,6064.2034 c 0,-140 2,-198 3,-127 2,70 2,184 0,255 -1,70 -3,12 -3,-128 z m 0,-1590 c 0,-140 2,-198 3,-127 2,70 2,184 0,255 -1,70 -3,12 -3,-128 z"
           id="path22"
           inkscape:highlight-color="#ffffff"
           style="fill:#01478b;fill-opacity:1" />
      </g>
    </svg>
  </g>
</svg>
